<svg height="336" viewBox="0 0 255 336" width="255" xmlns="http://www.w3.org/2000/svg"><g fill="#fff"><path d="m2 277.25h11.14v25.62l15.37-25.62h13.14l-15.24 25.35 15.37 31.79h-12.48l-10-20.1-6.17 10.38v9.72h-11.13z"/><path d="m46.24 294.06c0-11.69 5.52-19 19-19s19 7.36 19 19v22.86c0 11.69-5.39 19-18.92 19-13.14 0-20-7.22-19.18-19zm19 30.74c5.25 0 7.88-2.1 7.88-7.88v-22.86c0-5-2.1-7.75-7.88-7.75s-7.88 2.76-7.88 7.75v22.86c.05 5.08 2.15 7.88 7.93 7.88z"/><path d="m93.13 287.63v-10.38h18.26c13.66.92 16.16 10.77 16.16 19.57 0 7.36-1.31 12.61-7.22 16.16l11.43 21.54h-11.7l-10-19.31h-5.76v19.18h-11.17v-29.69h11.43l-8.8-17.08zm14.05 0 7.88 15.24c1.31-1.45 2.1-3.55 2.1-6.57 0-7.09-3.41-8.67-8.8-8.67z"/><path d="m170 288.55c.26 2.76 0 8-3.81 10.64 4.33.13 7 5.12 7.62 6.17 2.63 4.07 4.6 13.92.26 21.15s-14.07 7.88-14.07 7.88h-20.9v-57.14s19-1.05 21.94.92c4.33 1.97 8.28 3.83 8.96 10.38zm-19.7-2v11.45h1.84c7.62 0 6.83-4.6 6.83-5.91 0-4.47-2.89-5.52-5.38-5.52zm6.7 37.7s5.78.13 7.49-3.42 1.18-7-.13-8.93a8.25 8.25 0 0 0 -6.44-3.15h-7.62v15.5z"/><path d="m183 334.39v-57.14h28.24v11.17h-17.1v7.09h16.68v11.16h-16.68v16.55h17.08v11.17z"/><path d="m243.79 324.67-13.92-26.27v36h-11.17v-57.15h11.17l13.92 26.4v-26.4h11.21v57.14h-11.21z"/><path d="m124.52 0a124.48 124.48 0 1 0 124.48 124.51 124.62 124.62 0 0 0 -124.48-124.51zm18.88 129.84c-2.07 2.1-4.88 3.86-6.09 6.37-5.41 11.28-14.17 15.54-26.25 13.5-6.39-1.08-12.86-1.94-19.09-3.64-5.84-1.59-16.55-17.5-16.33-23.24 0-.83 0-2.15.51-2.39 6-3.11 11.73-7.35 18.11-8.7 6.12-1.3 13 0 19.36 1 9.25 1.38 19.21.83 26.06 9.69 1.33 1.72 6.48 1.75 9.28.81 6.8-2.29 13.34-7.31 20.21-7.31s14.2 2 16.88 6c5.09 7.54 2.27 16.85-2.69 23.86s-13.24 8.12-21.51 6.6-11.74-7.92-14.37-15.1c-.97-2.63-2.7-4.96-4.07-7.42zm30.09 92a55 55 0 0 0 -1.9-5.21 1.63 1.63 0 0 1 -.13-.59l-20.05-22.42c13.57-7.54 20.81-19.11 24.49-33.47a16.48 16.48 0 0 1 6.13-8.6c7-4.93 11.45-27 6.14-33.63-.68-.86-1.67-2.06-2.54-2.09-10.23-.32-8.82-7.56-8.08-13.9 2.28-19.42-3.32-35.55-18.4-48.48-17.23-14.77-37.44-15-57.86-11.57-24.58 4.12-36.06 18.27-37.19 43.12q-.76 16.52-1.61 33c-.07 1.38 0 3-.61 4.09-9.22 15.19-1.93 27.49 6.22 39.59-8.11.36-13.82 5.72-13.58 13a32.65 32.65 0 0 1 -9.18 24.6 109 109 0 1 1 128.16 22.6z"/></g></svg>